<svg width="232" height="404" viewBox="0 0 232 404" fill="none" xmlns="http://www.w3.org/2000/svg">
<path fill-rule="evenodd" clip-rule="evenodd" d="M88.4722 117.207V235.291L93.879 236.459C122.15 242.568 168.722 259.266 192.496 271.816C199.624 275.58 210.748 282.633 217.215 287.493C223.683 292.352 229.654 296.326 230.486 296.326C231.32 296.326 232 245.969 232 184.42V72.5114L221.678 63.1687C205.618 48.6285 190.672 38.1689 174.801 30.36C154.22 20.2346 118.521 6.25882 105.979 3.41726C100.135 2.09382 93.8063 0.585536 91.9129 0.0663857C88.6629 -0.824429 88.4722 5.69641 88.4722 117.207ZM4.56457e-06 167.03L0.00591473 285.51L113.474 303.61C175.879 313.562 227.275 321.371 227.686 320.96C228.978 319.67 199.061 299.636 183.244 291.197C154.123 275.664 104.708 259.683 74.2177 255.937L64.8785 254.788V156.799V58.809L60.4547 57.7038C55.2661 56.4079 5.16701 48.5499 2.09394 48.5499C0.631139 48.5499 -0.00196157 84.4066 4.56457e-06 167.03ZM39.3188 336.287V358.549L52.5902 356.915C68.6456 354.939 119.976 348.923 168.101 343.38C226.088 336.702 227.651 336.462 222.169 335.144C219.466 334.495 204.425 332.523 188.745 330.763C150.083 326.423 98.2478 320.341 70.4427 316.88C35.7149 312.557 39.3188 310.312 39.3188 336.287ZM169.084 360.341C139.346 365.039 114.793 368.926 114.523 368.983C114.254 369.04 114.032 377.144 114.032 386.994C114.032 400.538 114.632 404.663 116.49 403.916C123.076 401.271 229.159 352.86 229.871 352.176C231.41 350.693 223.107 351.808 169.084 360.341Z" fill="white"/>
</svg>
